# AST/ASF file generated using VICON BodyLanguage
# -----------------------------------------------
:version 1.10
:name VICON
:units
  mass 1.0
  length 0.45
  angle deg
:documentation
   .ast/.asf automatically generated from VICON data using
   VICON BodyBuilder and BodyLanguage model FoxedUp or BRILLIANT.MOD
:root
   order TX TY TZ RX RY RZ
   axis XYZ
   position 0 0 0  
   orientation 0 0 0 
:bonedata
  begin
     id 1 
     name lhipjoint
     direction 0.627457 -0.725269 0.283342 
     length 2.53237 
     axis 0 0 0  XYZ
  end
  begin
     id 2 
     name lfemur
     direction 0.34202 -0.939693 0  
     length 7.32496  
     axis 0 0 20  XYZ
    dof rx ry rz
    limits (-160.0 20.0)
           (-70.0 70.0)
           (-60.0 70.0)
  end
  begin
     id 3 
     name ltibia
     direction 0.34202 -0.939693 0   
     length 7.69674   
     axis 0 0 20   XYZ
    dof rx
    limits (-10.0 170.0)
  end
  begin
     id 4 
     name lfoot
     direction 0.127289 -0.349722 0.928166   
     length 1.8612   
     axis -90 7.62852e-016 20   XYZ
    dof rx rz
    limits (-45.0 90.0)
           (-70.0 20.0)
  end
  begin
     id 5 
     name ltoes
     direction 1.53561e-011 -4.21864e-011 1   
     length 0.925608   
     axis -90 7.62852e-016 20   XYZ
    dof rx
    limits (-90.0 20.0)
  end
  begin
     id 6 
     name rhipjoint
     direction -0.609094 -0.738725 0.288599   
     length 2.48624  
     axis 0 0 0  XYZ 
  end
  begin
     id 7 
     name rfemur
     direction -0.34202 -0.939693 0   
     length 7.44259   
     axis 0 0 -20   XYZ
    dof rx ry rz
    limits (-160.0 20.0)
           (-70.0 70.0)
           (-70.0 60.0)
  end
  begin
     id 8 
     name rtibia
     direction -0.34202 -0.939693 0   
     length 7.7781   
     axis 0 0 -20   XYZ
    dof rx
    limits (-10.0 170.0)
 end
 begin
     id 9 
     name rfoot
     direction -0.107015 -0.294021 0.949789   
     length 2.14741  
     axis -90 -7.62852e-016 -20   XYZ
    dof rx rz
    limits (-45.0 90.0)
           (-20.0 70.0)
  end
  begin
     id 10 
     name rtoes
     direction -1.53497e-011 -4.21924e-011 1   
     length 1.0706   
     axis -90 -7.62852e-016 -20   XYZ
    dof rx
    limits (-90.0 20.0)
  end
  begin
     id 11 
     name lowerback
     direction -0.0142066 0.998112 -0.0597545   
     length 1.86627   
     axis 0 0 0   XYZ
    dof rx ry rz
    limits (-20.0 45.0)
           (-30.0 30.0)
           (-30.0 30.0)
  end
  begin
     id 12 
     name upperback
     direction 0.00547294 0.999744 0.0219437   
     length 1.86272   
     axis 0 0 0   XYZ
    dof rx ry rz
    limits (-20.0 45.0)
           (-30.0 30.0)
           (-30.0 30.0)
  end
  begin
     id 13 
     name thorax
     direction 0.0116162 0.998704 0.0495538   
     length 1.8703   
     axis 0 0 0   XYZ
    dof rx ry rz
    limits (-20.0 45.0)
           (-30.0 30.0)
           (-30.0 30.0)
  end
  begin
     id 14 
     name lowerneck
     direction -0.0106574 0.998739 0.0490586   
     length 1.8074   
     axis 0 0 0   XYZ
    dof rx ry rz
    limits (-20.0 45.0)
           (-30.0 30.0)
           (-30.0 30.0)
  end
  begin
     id 15 
     name upperneck
     direction 0.030527 0.976587 -0.212944   
     length 1.80681   
     axis 0 0 0   XYZ
    dof rx ry rz
    limits (-20.0 45.0)
           (-30.0 30.0)
           (-30.0 30.0)
  end
  begin
     id 16
     name head
     direction 0.00869225 0.997035 -0.0764531  
     length 1.8313  
     axis 0 0 0   XYZ
    dof rx ry rz
    limits (-20.0 45.0)
           (-30.0 30.0)
           (-30.0 30.0)
  end
  begin
     id 17 
     name lclavicle
     direction 0.915958 0.399447 0.0382386  
     length 3.78965  
     axis 0 0 0   XYZ
    dof ry rz
    limits (-20.0 10.0)
           (0.0 20.0)
  end
  begin
     id 18 
     name lhumerus
     direction 1 -4.48967e-011 3.19303e-027   
     length 4.78095   
     axis -180 -30 -90   XYZ
    dof rx ry rz
    limits (-60.0 90.0)
           (-90.0 90.0)
           (-90.0 90.0)
  end
  begin
     id 19
     name lradius
     direction 1 -4.48967e-011 -3.77974e-027   
     length 3.58615   
     axis -180 -30 -90   XYZ
    dof rx
    limits (-10.0 170.0)
  end
  begin
     id 20
     name lwrist
     direction 1 -4.48927e-011 1.2807e-027   
     length 1.79307   
     axis 1.91374e-015 90 90   XYZ
    dof ry
    limits (-180.0 0.0)
 end
  begin
     id 21 
     name lhand
     direction 1 -4.49036e-011 2.5614e-027   
     length 0.659812   
     axis -1.63439e-015 90 90   XYZ
    dof rx rz
    limits (-90.0 90.0)
           (-45.0 45.0)
  end
  begin
     id 22 
     name lfingers
     direction 1 -4.49052e-011 5.1228e-027   
     length 0.531957   
     axis -3.26879e-015 90 90   XYZ
    dof rx
    limits (0.0 90.0)
  end
  begin
     id 23
     name lthumb
     direction 0.707107 -6.35012e-011 0.707107   
     length 0.763787   
     axis -90 45 2.85299e-015   XYZ
    dof rx rz
    limits (-45.0 45.0)
           (-45.0 45.0)
  end
  begin
     id 24 
     name rclavicle
     direction -0.895351 0.435135 0.0948887   
     length 3.70497  
     axis 0 0 0   XYZ 
    dof ry rz
    limits (-10.0 20.0)
           (-20.0 0.0)
  end
  begin
     id 25 
     name rhumerus
     direction -1 -4.48971e-011 2.38946e-027  
     length 4.48913   
     axis -180 30 90   XYZ
    dof rx ry rz
    limits (-90.0 60.0)
           (-90.0 90.0)
           (-90.0 90.0)
  end
  begin
     id 26 
     name rradius
     direction -1 -4.4895e-011 4.38668e-027   
     length 3.7051   
     axis -180 30 90   XYZ
    dof rx
    limits (-10.0 170.0)
  end
  begin
     id 27 
     name rwrist
     direction -1 -4.49007e-011 1.2807e-027   
     length 1.85255   
     axis 1.91374e-015 -90 -90   XYZ
    dof ry
    limits (-180.0 0.0)
  end
  begin
     id 28
     name rhand
     direction -1 -4.48851e-011 2.5614e-027   
     length 0.449136   
     axis -1.63439e-015 -90 -90   XYZ
    dof rx rz
    limits (-90.0 90.0)
           (-45.0 45.0)
  end
  begin
     id 29
     name rfingers
     direction -1 -4.49128e-011 5.1228e-027   
     length 0.362105   
     axis -3.26879e-015 -90 -90   XYZ
    dof rx
    limits (0.0 90.0)
  end
  begin
     id 30
     name rthumb
     direction -0.707107 -6.34851e-011 0.707107   
     length 0.519912   
     axis -90 -45 -2.85299e-015   XYZ
    dof rx rz
    limits (-45.0 45.0)
           (-45.0 45.0)
  end
:hierarchy
  begin
    root lhipjoint rhipjoint lowerback
    lhipjoint lfemur
    lfemur ltibia
    ltibia lfoot
    lfoot ltoes
    rhipjoint rfemur
    rfemur rtibia
    rtibia rfoot
    rfoot rtoes
    lowerback upperback
    upperback thorax
    thorax lowerneck lclavicle rclavicle
    lowerneck upperneck
    upperneck head
    lclavicle lhumerus
    lhumerus lradius
    lradius lwrist
    lwrist lhand lthumb
    lhand lfingers
    rclavicle rhumerus
    rhumerus rradius
    rradius rwrist
    rwrist rhand rthumb
    rhand rfingers
  end

#!OML:ASF I:\Actors\actors\Patient Classification 2\Patient 1\Session 1\actor1.ASF
:FULLY-SPECIFIED
:DEGREES
1
root -0.931008 18.6552 6.23245 -1.60834 -3.45011 -2.42615
lowerback 1.93722 0.807244 0.270739
upperback -1.19362 1.09999 0.705607
thorax -2.31833 0.550537 0.528689
lowerneck -9.38258 -0.402484 0.0455163
upperneck 23.8135 -0.921957 1.40798
head 8.99696 -0.284886 0.374907
rclavicle 9.2497e-015 1.17283e-014
rhumerus -49.0741 -6.52717 -84.327
rradius 41.523
rwrist 16.7491
rhand -8.34391 -27.4624
rfingers 7.12502
rthumb 17.5779 -56.6878
lclavicle 9.2497e-015 1.17283e-014
lhumerus -42.8547 8.64595 87.4838
lradius 37.2263
lwrist -12.391
lhand -8.00302 -25.6995
lfingers 7.12502
lthumb 17.9059 3.49622
rfemur 0 0 0
rtibia 0
rfoot 0 0
rtoes 0
lfemur -0.749978 -5.30179 -14.9069
ltibia 23.4046
lfoot -24.9975 15.4192
ltoes -56.2438
2
root -0.931357 18.6552 6.2313 -1.60194 -3.44368 -2.4188
lowerback 1.9402 0.812688 0.263052
upperback -1.20289 1.10707 0.703237
thorax -2.32967 0.554176 0.530162
lowerneck -9.36833 -0.411547 0.0457227
upperneck 23.8184 -0.933087 1.40144
head 8.99606 -0.290786 0.371523
rclavicle 1.24489e-014 -2.78299e-015
rhumerus -49.0973 -6.57153 -84.2994
rradius 41.5179
rwrist 16.8537
rhand -8.4138 -27.4884
rfingers 7.12502
rthumb 17.5106 -56.7198
lclavicle 1.24489e-014 -2.78299e-015
lhumerus -42.8631 8.60368 87.5101
lradius 37.2094
lwrist -12.3465
lhand -8.02954 -25.7244
lfingers 7.12502
lthumb 17.8804 3.47366
rfemur 0 0 0
rtibia 0
rfoot 0 0
rtoes 0
lfemur -0.75591 -5.32577 -14.9154
ltibia 23.3937
lfoot -24.9767 15.4419
ltoes -56.2485
3
root -0.931621 18.6552 6.23058 -1.60053 -3.43956 -2.41311
lowerback 1.93088 0.822286 0.26594
upperback -1.20201 1.11964 0.691878
thorax -2.32335 0.560311 0.516552
lowerneck -9.33312 -0.428155 0.0285541
upperneck 23.7921 -0.961601 1.43945
head 8.98082 -0.302021 0.384417
rclavicle -1.55301e-015 1.0138e-014
rhumerus -49.1007 -6.61913 -84.2993
rradius 41.4983
rwrist 16.9365
rhand -8.45639 -27.423
rfingers 7.12502
rthumb 17.4697 -56.658
lclavicle -1.55301e-015 1.0138e-014
lhumerus -42.855 8.55808 87.5162
lradius 37.1908
lwrist -12.34
lhand -8.09317 -25.7651
lfingers 7.12502
lthumb 17.8192 3.43848
rfemur 0 0 0
rtibia 0
rfoot 0 0
rtoes 0
lfemur -0.749719 -5.37554 -14.928
ltibia 23.3811
lfoot -24.9904 15.4595
ltoes -56.1442
4
root -0.931596 18.655 6.2301 -1.61386 -3.44272 -2.42378
lowerback 1.93306 0.827361 0.288011
upperback -1.19537 1.12683 0.683393
thorax -2.3172 0.563478 0.495232
lowerneck -9.30665 -0.437083 0.0225109
upperneck 23.7489 -0.970381 1.43243
head 8.96097 -0.307788 0.382098
rclavicle -4.4975e-015 1.53064e-014
rhumerus -49.0995 -6.61255 -84.3399
rradius 41.4862
rwrist 16.8906
rhand -8.48808 -27.3866
rfingers 7.12502
rthumb 17.4392 -56.6244
lclavicle -4.4975e-015 1.53064e-014
lhumerus -42.8533 8.54603 87.5089
lradius 37.1959
lwrist -12.3483
lhand -8.1222 -25.7774
lfingers 7.12502
lthumb 17.7913 3.42877
rfemur 0 0 0
rtibia 0
rfoot 0 0
rtoes 0
lfemur -0.728687 -5.40129 -14.9213
ltibia 23.3703
lfoot -25.0238 15.4475
ltoes -56.1089
5
root -0.931071 18.6547 6.22995 -1.62626 -3.4487 -2.42064
lowerback 1.94411 0.831149 0.296589
upperback -1.19806 1.13213 0.678331
thorax -2.32595 0.565938 0.484833
lowerneck -9.29927 -0.436975 0.0333668
upperneck 23.7247 -0.958296 1.37635
head 8.95075 -0.307153 0.362402
rclavicle -9.56651e-015 1.72943e-014
rhumerus -49.1257 -6.59333 -84.3551
rradius 41.4941
rwrist 16.8279
rhand -8.54446 -27.3624
rfingers 7.12502
rthumb 17.3849 -56.6049
lclavicle -9.56651e-015 1.72943e-014
lhumerus -42.8711 8.5669 87.4994
lradius 37.2037
lwrist -12.3771
lhand -8.11379 -25.7799
lfingers 7.12502
lthumb 17.7994 3.42556
rfemur 0 0 0
rtibia 0
rfoot 0 0
rtoes 0
lfemur -0.71052 -5.45302 -14.9383
ltibia 23.3639
lfoot -25.1102 15.4808
ltoes -56.1323
6
root -0.930517 18.6545 6.22987 -1.62761 -3.44364 -2.39493
lowerback 1.9381 0.826518 0.269543
upperback -1.19361 1.12516 0.682008
thorax -2.31854 0.562921 0.504158
lowerneck -9.29863 -0.427148 0.0206045
upperneck 23.7201 -0.947323 1.39848
head 8.94911 -0.300844 0.373226
rclavicle 1.4766e-014 -8.54774e-015
rhumerus -49.1265 -6.58673 -84.3252
rradius 41.4806
rwrist 16.8486
rhand -8.61455 -27.2572
rfingers 7.12502
rthumb 17.3174 -56.5057
lclavicle 1.4766e-014 -8.54774e-015
lhumerus -42.8582 8.61104 87.5041
lradius 37.1911
lwrist -12.4013
lhand -8.13996 -25.7852
lfingers 7.12502
lthumb 17.7742 3.4225
rfemur 0 0 0
rtibia 0
rfoot 0 0
rtoes 0
lfemur -0.711496 -5.50599 -14.9772
ltibia 23.3682
lfoot -25.1612 15.5112
ltoes -56.0957
7
root -0.930035 18.6549 6.22913 -1.62234 -3.43515 -2.38297
lowerback 1.94236 0.823927 0.259871
upperback -1.19482 1.12148 0.68315
thorax -2.32236 0.561249 0.510815
lowerneck -9.304 -0.422814 0.00492979
upperneck 23.7474 -0.950717 1.44827
head 8.95992 -0.298446 0.392523
rclavicle 1.44119e-014 -8.54774e-015
rhumerus -49.1073 -6.61341 -84.2993
rradius 41.4467
rwrist 16.9159
rhand -8.59101 -27.1703
rfingers 7.12502
rthumb 17.3401 -56.4168
lclavicle 1.44119e-014 -8.54774e-015
lhumerus -42.8399 8.63008 87.5164
lradius 37.1756
lwrist -12.4214
lhand -8.18303 -25.76
lfingers 7.12502
lthumb 17.7327 3.45144
rfemur 0 0 0
rtibia 0
rfoot 0 0
rtoes 0
lfemur -0.729436 -5.4665 -14.9785
ltibia 23.3821
lfoot -25.1361 15.4551
ltoes -56.043
8
root -0.92938 18.6551 6.22851 -1.61237 -3.43052 -2.39671
lowerback 1.94891 0.830876 0.287997
upperback -1.20132 1.13163 0.680772
thorax -2.3322 0.565843 0.492064
lowerneck -9.32758 -0.435175 0.0122096
upperneck 23.784 -0.969082 1.44387
head 8.97715 -0.306531 0.387923
rclavicle 6.11884e-015 -2.127e-014
rhumerus -49.1058 -6.661 -84.2833
rradius 41.4385
rwrist 16.9662
rhand -8.54199 -27.1409
rfingers 7.12502
rthumb 17.3873 -56.3832
lclavicle 6.11884e-015 -2.127e-014
lhumerus -42.8445 8.61315 87.5275
lradius 37.1977
lwrist -12.4395
lhand -8.16906 -25.7484
lfingers 7.12502
lthumb 17.7462 3.46184
rfemur 0 0 0
rtibia 0
rfoot 0 0
rtoes 0
lfemur -0.75018 -5.42473 -14.9554
ltibia 23.4013
lfoot -25.106 15.4073
ltoes -55.9866
9
root -0.929104 18.6546 6.2284 -1.61613 -3.42922 -2.42684
lowerback 1.94361 0.831214 0.32862
upperback -1.19547 1.13326 0.684337
thorax -2.32252 0.566047 0.473038
lowerneck -9.31572 -0.443427 0.0242491
upperneck 23.7707 -0.980305 1.43388
head 8.97031 -0.311921 0.381302
rclavicle 2.00462e-014 -4.17448e-015
rhumerus -49.1225 -6.66585 -84.2819
rradius 41.445
rwrist 16.9573
rhand -8.59715 -27.0923
rfingers 7.12502
rthumb 17.3342 -56.3393
lclavicle 2.00462e-014 -4.17448e-015
lhumerus -42.8524 8.61886 87.521
lradius 37.2295
lwrist -12.455
lhand -8.15472 -25.7495
lfingers 7.12502
lthumb 17.76 3.45943
rfemur 0 0 0
rtibia 0
rfoot 0 0
rtoes 0
lfemur -0.748718 -5.43249 -14.9272
ltibia 23.4146
lfoot -25.103 15.4
ltoes -55.9474
10
root -0.928746 18.6542 6.22753 -1.62363 -3.4124 -2.43284
lowerback 1.9513 0.81638 0.348719
upperback -1.19133 1.11392 0.676414
thorax -2.32191 0.556004 0.454338
lowerneck -9.32649 -0.438146 0.0390796
upperneck 23.7809 -0.97696 1.43756
head 8.97579 -0.308594 0.380377
rclavicle -2.35436e-015 2.18663e-015
rhumerus -49.1247 -6.6516 -84.3056
rradius 41.4383
rwrist 16.935
rhand -8.62921 -27.1283
rfingers 7.12502
rthumb 17.3033 -56.378
lclavicle -2.35436e-015 2.18663e-015
lhumerus -42.8405 8.65089 87.496
lradius 37.207
lwrist -12.4813
lhand -8.19552 -25.7278
lfingers 7.12502
lthumb 17.7207 3.48477
rfemur 0 0 0
rtibia 0
rfoot 0 0
rtoes 0
lfemur -0.746749 -5.44745 -14.9227
ltibia 23.4163
lfoot -25.1153 15.415
ltoes -56.0671
